#!OML:ASF I:\Random Stuff\random\construction\7_22_03\Session 2\subj1.ASF
:FULLY-SPECIFIED
:DEGREES
712
root -6.87156 17.6653 -1.49938 -157.103 87.4389 -165.183
lowerback 1.10903 -0.375742 -1.87478
upperback -1.24763 -0.538033 -0.264264
thorax -1.88557 -0.242357 0.79423
lowerneck -20.5437 -2.24709 -2.44749
upperneck 44.1483 -1.80568 3.25253
head 21.4506 0.0112995 1.99525
rclavicle -3.47873e-015 0
rhumerus -32.3397 17.7071 -85.199
rradius 111.045
rwrist -35.9428
rhand -8.77967 26.7046
rfingers 7.12502
rthumb 17.1585 -2.55777
lclavicle -3.47873e-015 0
lhumerus -33.777 -36.9758 105.945
lradius 78.1804
lwrist -5.0922
lhand -23.0207 47.174
lfingers 7.12502
lthumb 3.42306 -282.874
rfemur -9.52156 12.3341 17.116
rtibia 17.0825
rfoot -14.1222 -12.9362
rtoes -15.3355
lfemur -15.7645 -19.909 -15.4087
ltibia 24.1587
lfoot -16.6516 23.1197
ltoes -22.3838
713
root -6.85922 17.6648 -1.46391 -156.571 87.5284 -164.629
lowerback 0.789139 -0.403789 -1.80509
upperback -1.27308 -0.565017 -0.129303
thorax -1.7305 -0.257033 0.89171
lowerneck -20.5385 -2.27753 -2.45051
upperneck 44.0942 -1.87225 3.25282
head 21.4126 -0.0159966 1.97689
rclavicle -1.00883e-014 3.97569e-016
rhumerus -32.2944 17.8215 -85.0612
rradius 111.22
rwrist -36.3679
rhand -8.16597 26.4524
rfingers 7.12502
rthumb 17.7491 -2.75753
lclavicle -1.00883e-014 3.97569e-016
lhumerus -33.5229 -37.8469 106.107
lradius 77.8052
lwrist -5.87124
lhand -22.3179 46.8404
lfingers 7.12502
lthumb 4.10178 -283.219
rfemur -9.46071 12.4258 17.2514
rtibia 17.1119
rfoot -14.2526 -12.9345
rtoes -15.0357
lfemur -15.6443 -20.3197 -15.2885
ltibia 24.1309
lfoot -16.7824 23.5796
ltoes -22.2603
714
root -6.85734 17.6612 -1.42542 -157.243 87.45 -165.14
lowerback 0.725892 -0.513491 -1.81243
upperback -1.26365 -0.70786 0.0481654
thorax -1.67894 -0.327853 1.08012
lowerneck -20.4749 -2.28213 -2.4587
upperneck 43.9484 -1.88394 3.20533
head 21.2841 -0.0338307 1.94067
rclavicle 7.42958e-015 4.17448e-015
rhumerus -32.2246 18.0376 -84.8743
rradius 111.424
rwrist -36.9379
rhand -7.51369 26.199
rfingers 7.12502
rthumb 18.3767 -2.95297
lclavicle 7.42958e-015 4.17448e-015
lhumerus -33.2208 -38.4046 106.157
lradius 77.5717
lwrist -6.79726
lhand -21.6118 46.6938
lfingers 7.12502
lthumb 4.78367 -283.38
rfemur -9.27706 12.4381 17.4489
rtibia 17.1867
rfoot -14.3247 -13.0725
rtoes -15.4298
lfemur -15.4317 -20.7273 -15.1854
ltibia 24.0726
lfoot -16.844 23.8635
ltoes -22.0723
715
root -6.85359 17.6568 -1.38946 -158.428 87.4041 -166.19
lowerback 0.665656 -0.588375 -1.79218
upperback -1.28222 -0.80471 0.1632
thorax -1.65971 -0.3758 1.1881
lowerneck -20.4622 -2.29111 -2.50826
upperneck 43.8873 -1.93265 3.2904
head 21.2413 -0.0506837 1.97947
rclavicle 3.2551e-015 -3.97569e-016
rhumerus -32.202 18.1581 -84.7434
rradius 111.589
rwrist -37.6361
rhand -6.86105 26.0782
rfingers 7.12502
rthumb 19.0044 -3.0134
lclavicle 3.2551e-015 -3.97569e-016
lhumerus -32.9614 -38.903 106.207
lradius 77.2806
lwrist -7.7177
lhand -21.5161 46.2835
lfingers 7.12502
lthumb 4.87603 -283.793
rfemur -9.16033 12.4495 17.5879
rtibia 17.3239
rfoot -14.4018 -13.1779
rtoes -15.9171
lfemur -15.214 -21.0148 -15.1387
ltibia 23.9668
lfoot -16.8428 24.0939
ltoes -22.0821
716
root -6.84792 17.6564 -1.35578 -160.596 87.5028 -168.33
lowerback 0.521729 -0.608339 -1.83692
upperback -1.34461 -0.828125 0.220857
thorax -1.64071 -0.38598 1.27141
lowerneck -20.4974 -2.32961 -2.62672
upperneck 43.9009 -2.03697 3.48013
head 21.2766 -0.0831349 2.07834
rclavicle 2.26118e-015 4.77083e-015
rhumerus -32.2083 18.2074 -84.6662
rradius 111.706
rwrist -38.3677
rhand -6.43499 26.0163
rfingers 7.12502
rthumb 19.4142 -3.03449
lclavicle 2.26118e-015 4.77083e-015
lhumerus -32.7858 -39.4842 106.31
lradius 76.9293
lwrist -8.42911
lhand -22.2001 45.6094
lfingers 7.12502
lthumb 4.21555 -284.453
rfemur -9.19514 12.4542 17.5888
rtibia 17.4871
rfoot -14.4889 -13.0912
rtoes -15.8183
lfemur -15.066 -21.2075 -15.1734
ltibia 23.8426
lfoot -16.8067 24.3821
ltoes -22.2301
717
root -6.84626 17.6564 -1.32342 -164.133 87.5846 -171.754
lowerback 0.502483 -0.659377 -1.92262
upperback -1.37576 -0.896556 0.251392
thorax -1.65775 -0.418317 1.35199
lowerneck -20.4996 -2.36109 -2.69043
upperneck 43.8402 -2.13786 3.60927
head 21.2442 -0.116343 2.13071
rclavicle -9.72802e-015 -1.47101e-014
rhumerus -32.1924 18.2872 -84.6644
rradius 111.798
rwrist -38.9715
rhand -6.18034 26.0087
rfingers 7.12502
rthumb 19.659 -3.01724
lclavicle -9.72802e-015 -1.47101e-014
lhumerus -32.6095 -39.9468 106.324
lradius 76.6289
lwrist -9.03483
lhand -22.9533 44.8819
lfingers 7.12502
lthumb 3.4882 -285.167
rfemur -9.15346 12.4396 17.551
rtibia 17.665
rfoot -14.5783 -13.0069
rtoes -15.446
lfemur -14.8384 -21.2747 -15.3007
ltibia 23.7065
lfoot -16.7021 24.5573
ltoes -22.5366
718
root -6.84461 17.655 -1.29112 -165.816 87.6555 -173.294
lowerback 0.467417 -0.695758 -1.9201
upperback -1.36249 -0.943762 0.289778
thorax -1.62209 -0.442206 1.39017
lowerneck -20.548 -2.34778 -2.72224
upperneck 43.8119 -2.18642 3.76384
head 21.2469 -0.119797 2.20528
rclavicle -2.2736e-015 1.59028e-014
rhumerus -32.0797 18.3394 -84.6391
rradius 111.891
rwrist -39.5465
rhand -5.84097 25.8957
rfingers 7.12502
rthumb 19.9852 -3.09653
lclavicle -2.2736e-015 1.59028e-014
lhumerus -32.3984 -40.4513 106.296
lradius 76.3656
lwrist -9.50308
lhand -23.8599 43.553
lfingers 7.12502
lthumb 2.61264 -286.483
rfemur -9.09516 12.4233 17.6173
rtibia 17.8471
rfoot -14.636 -12.959
rtoes -15.2168
lfemur -14.5861 -21.1241 -15.3515
ltibia 23.5703
lfoot -16.547 24.5385
ltoes -23.1566
719
root -6.84307 17.6531 -1.2609 -166.131 87.6942 -173.49
lowerback 0.358149 -0.742426 -1.89418
upperback -1.30373 -1.00213 0.380691
thorax -1.49706 -0.473067 1.46767
lowerneck -20.6143 -2.40841 -2.74813
upperneck 43.8002 -2.30411 3.80095
head 21.2689 -0.165361 2.20147
rclavicle 1.94436e-015 -5.76476e-015
rhumerus -31.8679 18.4373 -84.5447
rradius 112.011
rwrist -40.1965
rhand -5.4809 25.6805
rfingers 7.12502
rthumb 20.3313 -3.27529
lclavicle 1.94436e-015 -5.76476e-015
lhumerus -32.1066 -40.9843 106.296
lradius 76.0733
lwrist -9.69882
lhand -24.6464 41.8399
lfingers 7.12502
lthumb 1.85311 -288.188
rfemur -9.04874 12.2715 17.7435
rtibia 17.9827
rfoot -14.6499 -12.8271
rtoes -15.431
lfemur -14.3937 -21.017 -15.3221
ltibia 23.4812
lfoot -16.4758 24.4876
ltoes -23.6687
720
root -6.84338 17.6516 -1.23308 -166.147 87.7056 -173.41
lowerback 0.282588 -0.792664 -1.82108
upperback -1.28367 -1.06585 0.454197
thorax -1.43146 -0.506216 1.5016
lowerneck -20.5907 -2.52472 -2.66601
upperneck 43.7674 -2.49326 3.68708
head 21.2444 -0.240272 2.07953
rclavicle 5.61567e-015 1.18277e-014
rhumerus -31.7737 18.4959 -84.5407
rradius 112.141
rwrist -40.7874
rhand -5.16596 25.7328
rfingers 7.12502
rthumb 20.634 -3.19045
lclavicle 5.61567e-015 1.18277e-014
lhumerus -31.8477 -41.4479 106.3
lradius 75.7226
lwrist -9.95201
lhand -23.9788 41.1698
lfingers 7.12502
lthumb 2.49781 -288.865
rfemur -8.98042 12.0986 17.8702
rtibia 18.0393
rfoot -14.6587 -12.6464
rtoes -15.4909
lfemur -14.2776 -20.8678 -15.2647
ltibia 23.4582
lfoot -16.4157 24.3779
ltoes -23.9161
